<svg width="176" height="38" viewBox="0 0 176 38" fill="none" xmlns="http://www.w3.org/2000/svg">
<path d="M23.4224 1.80345L36.3027 14.6461C38.7144 17.0507 38.7144 20.9493 36.3027 23.3539L23.4224 36.1965C21.0108 38.6012 17.1007 38.6012 14.689 36.1965L1.80874 23.3539C-0.602915 20.9493 -0.602915 17.0507 1.80874 14.6461L14.689 1.80345C17.1007 -0.601152 21.0108 -0.601152 23.4224 1.80345Z" fill="#1B3E67"/>
<path d="M18.4412 7.6695C16.4793 7.95604 14.6886 8.94382 13.4028 10.4489C12.1169 11.9539 11.4235 13.8737 11.4517 15.8506V28.2803C11.4516 28.4091 11.4897 28.535 11.5612 28.6422C11.6327 28.7495 11.7343 28.8333 11.8534 28.8832C11.9724 28.933 12.1036 28.9467 12.2304 28.9226C12.3573 28.8984 12.4741 28.8374 12.5663 28.7472L18.0121 23.4129C20.1138 23.7936 22.4707 23.4919 25.0222 20.9263C25.8115 20.1784 26.4338 19.273 26.8486 18.2692C27.2634 17.2654 27.4614 16.1856 27.4296 15.1004C27.3633 14.0112 27.0736 12.9471 26.5784 11.974C26.0832 11.0008 25.3929 10.1394 24.5504 9.44286C23.7079 8.74634 22.7311 8.22958 21.6803 7.92456C20.6295 7.61953 19.5271 7.53272 18.4412 7.6695ZM19.4478 20.8637C18.042 20.8637 16.6938 20.3069 15.6998 19.3158C14.7057 18.3246 14.1473 16.9803 14.1473 15.5786C14.1473 14.177 14.7057 12.8327 15.6998 11.8415C16.6938 10.8504 18.042 10.2936 19.4478 10.2936C20.8536 10.2936 22.2019 10.8504 23.1959 11.8415C24.19 12.8327 24.7484 14.177 24.7484 15.5786C24.7484 16.9803 24.19 18.3246 23.1959 19.3158C22.2019 20.3069 20.8536 20.8637 19.4478 20.8637Z" fill="#EDEEEF"/>
<path d="M57.6421 9.58892C56.3897 8.61234 54.8207 8.12595 53.232 8.22187H46.3158L46.3169 26.221H48.3485V18.8414H53.2178C54.8162 18.9387 56.3939 18.4422 57.6449 17.4483C58.6728 16.3954 59.2475 14.9857 59.247 13.5183C59.2465 12.051 58.6707 10.6411 57.6421 9.58892ZM57.218 13.5016C57.218 15.8829 55.8824 17.0402 53.1357 17.0402L48.3506 17.0384V10.0123H53.1357C55.8824 10.0123 57.218 11.154 57.218 13.5016ZM68.4254 13.3719L68.5905 15.1652L67.2757 15.2826C66.7676 15.2948 66.2669 15.4064 65.8023 15.6112C65.3376 15.8159 64.918 16.1097 64.5676 16.4757C64.0107 17.165 63.719 18.029 63.745 18.9128V26.2204H61.7378V13.6866H63.7195V15.1863C64.0467 14.7647 64.4563 14.4134 64.9239 14.1537C65.7353 13.7316 66.6285 13.4876 67.543 13.4381L68.4254 13.3719ZM80.8406 19.8974C80.8657 18.7218 80.6232 17.5558 80.1312 16.4865C79.6871 15.5352 78.9692 14.7362 78.0683 14.1906C77.1364 13.668 76.0843 13.3937 75.0144 13.3945C73.9444 13.3954 72.8928 13.6712 71.9617 14.1952C71.0686 14.746 70.3549 15.5418 69.9064 16.4867C69.4296 17.5599 69.1835 18.7203 69.1837 19.8936C69.1838 21.0669 69.4304 22.2272 69.9074 23.3003C70.3557 24.2446 71.0691 25.0398 71.9617 25.59L71.9702 25.5946C72.902 26.117 73.9539 26.3912 75.0236 26.3906C76.0934 26.3899 77.1448 26.1145 78.076 25.5909C78.9742 25.0453 79.6898 24.2473 80.1321 23.2976C80.6221 22.2314 80.8643 21.0694 80.8406 19.8974ZM78.7835 19.9069C78.8657 21.1476 78.5143 22.3785 77.7888 23.3913C77.4439 23.787 77.0126 24.0992 76.5278 24.3039C76.0431 24.5087 75.5177 24.6006 74.9918 24.5727C74.4758 24.6035 73.9597 24.5143 73.4845 24.3121C73.0093 24.1099 72.5881 23.8002 72.2543 23.4077C71.5323 22.376 71.1864 21.1302 71.2738 19.8763C71.1982 18.6431 71.5466 17.4209 72.2617 16.4105C72.3497 16.3129 72.4429 16.2202 72.5411 16.1328C73.2709 15.4812 74.23 15.1428 75.2097 15.1914C76.1893 15.24 77.11 15.6715 77.771 16.392C78.5047 17.413 78.8623 18.6545 78.7835 19.9069ZM85.587 13.6903L85.5909 26.057C85.5909 28.9439 84.1107 30.5051 81.192 30.6968L79.8649 30.7873L79.6561 29.0913L81.005 29.002C81.7299 28.999 82.4242 28.7113 82.9366 28.2014C83.397 27.6493 83.6273 26.9428 83.5798 26.2271V13.6903H85.587ZM83.356 8.59851H85.8403V10.9928H83.3558L83.356 8.59851ZM94.278 13.3818C93.1899 13.3594 92.1177 13.6439 91.1854 14.2022C90.2792 14.757 89.5534 15.5601 89.0952 16.5151C88.5901 17.5713 88.3383 18.7295 88.3594 19.8988C88.3082 20.7617 88.4293 21.6261 88.7159 22.4421C89.0025 23.2581 89.449 24.0096 90.0293 24.6531C91.1538 25.7684 92.6765 26.396 94.2648 26.399C94.3678 26.399 94.4717 26.3966 94.5747 26.391C95.466 26.3905 96.3503 26.2344 97.1873 25.9298C97.9724 25.664 98.6944 25.2412 99.3088 24.6874L99.4448 24.5648L98.6222 22.9293L98.3869 23.136C97.3296 24.0617 95.9684 24.571 94.5596 24.5681H94.5577C94.0066 24.6037 93.4543 24.5222 92.9374 24.3292C92.4204 24.1362 91.9507 23.8361 91.5594 23.4487C90.8376 22.5854 90.4338 21.503 90.4146 20.3806H99.5863L99.5939 19.4749C99.6916 17.861 99.1878 16.2677 98.1786 14.9998C97.6915 14.4573 97.0882 14.0304 96.4132 13.7505C95.7381 13.4705 95.0084 13.3442 94.278 13.3818ZM94.2847 15.1111C94.7441 15.0863 95.2034 15.1621 95.6301 15.333C96.0569 15.5038 96.4408 15.7657 96.7547 16.1001C97.3568 16.8672 97.6913 17.8084 97.7078 18.7813H90.4846C90.5889 17.8013 90.9947 16.8772 91.6466 16.1349C91.9887 15.7889 92.4007 15.5188 92.8554 15.3426C93.3101 15.1663 93.7973 15.0878 94.2847 15.1123V15.1111ZM111.222 22.9885L112.007 24.5846L111.881 24.7061C111.315 25.2548 110.638 25.6762 109.894 25.942C109.117 26.2382 108.291 26.3898 107.458 26.3891C107.396 26.3891 107.351 26.3914 107.298 26.391C106.248 26.3902 105.216 26.1126 104.309 25.5865L104.339 25.5377L104.307 25.5889C103.402 25.0459 102.677 24.2489 102.226 23.298C101.729 22.2474 101.481 21.0972 101.502 19.9364C101.482 18.7609 101.734 17.5966 102.238 16.533C102.694 15.571 103.423 14.7627 104.336 14.2074C105.301 13.6505 106.402 13.3676 107.518 13.3894C108.351 13.3915 109.177 13.5385 109.959 13.8238C110.688 14.0783 111.348 14.4978 111.886 15.0493L112.003 15.1694L111.219 16.7979L110.979 16.5904C110.463 16.1441 109.881 15.78 109.253 15.5113C108.716 15.2937 108.142 15.1821 107.562 15.1826C107.015 15.1542 106.468 15.2519 105.965 15.468C105.462 15.6842 105.015 16.0129 104.661 16.4287C103.888 17.4266 103.505 18.6683 103.581 19.9251C103.498 21.1682 103.88 22.3979 104.653 23.3787C105.012 23.7774 105.456 24.0911 105.953 24.2971C106.45 24.503 106.987 24.596 107.525 24.569C108.111 24.57 108.692 24.4568 109.234 24.2358C109.864 23.9675 110.454 23.6122 110.984 23.1804L111.222 22.9885ZM120.631 24.801L120.544 26.2665L120.347 26.2928C119.946 26.3444 119.543 26.3702 119.139 26.3699C119.039 26.3769 118.938 26.3806 118.837 26.3806C117.735 26.3773 116.676 25.9537 115.878 25.1973C115.091 24.3187 114.686 23.1651 114.754 21.9902V15.385H112.347V13.6866H114.747V9.95923H116.754V13.6866H120.303V15.385H116.754V21.8037C116.693 22.5739 116.929 23.3382 117.415 23.9411C117.662 24.1807 117.957 24.3653 118.282 24.4825C118.606 24.5997 118.952 24.647 119.296 24.6211C119.649 24.6211 120.002 24.5972 120.352 24.5498L120.386 24.787L120.631 24.801ZM137.833 8.22042H139.529V26.2216H137.595V12.4921L131.809 23.462H130.367L124.533 12.581L124.556 26.2197H122.594V8.22151H124.281L131.103 21.2106L137.833 8.22042ZM151.835 14.6219L151.649 14.7743L151.644 14.777L151.808 14.601C151.346 14.1742 150.801 13.8468 150.207 13.6395C149.612 13.4321 148.981 13.3493 148.352 13.3961C147.481 13.4012 146.615 13.5391 145.786 13.8051C144.974 14.0462 144.207 14.4188 143.517 14.9077L143.349 15.026L144.134 16.6224L144.364 16.4699C144.991 16.0541 145.672 15.7253 146.388 15.4927C147.056 15.2895 147.751 15.187 148.45 15.1889C148.798 15.1569 149.148 15.1993 149.477 15.3132C149.807 15.4271 150.108 15.6099 150.361 15.8492C150.838 16.5002 151.062 17.3009 150.992 18.1034V18.7843H150.71C149.183 18.7555 147.657 18.8642 146.15 19.1092C145.226 19.2299 144.361 19.632 143.676 20.2605C143.141 20.8818 142.87 21.6856 142.92 22.5021C142.914 23.2138 143.124 23.9107 143.522 24.5019C143.929 25.1087 144.495 25.5935 145.158 25.904C145.843 26.2283 146.591 26.3974 147.35 26.399C147.399 26.399 147.449 26.3999 147.497 26.399C148.322 26.399 149.131 26.1756 149.837 25.7529C150.286 25.4792 150.678 25.1228 150.992 24.7029V26.2212H152.976V18.2467C153.082 16.9374 152.673 15.6375 151.835 14.6219ZM150.986 20.3834V20.9741C151.005 21.4514 150.929 21.9279 150.762 22.3759C150.595 22.824 150.341 23.2347 150.014 23.5848L149.99 23.6116C149.669 23.9364 149.285 24.1923 148.861 24.3635C148.436 24.5347 147.981 24.6176 147.523 24.607C146.861 24.6297 146.214 24.4052 145.711 23.9775C145.48 23.7888 145.295 23.55 145.171 23.2795C145.048 23.0089 144.988 22.7137 144.996 22.4166C144.982 22.1981 145.012 21.979 145.087 21.7729C145.161 21.5668 145.278 21.3783 145.429 21.2192C145.917 20.853 146.5 20.6326 147.109 20.5839C148.318 20.431 149.536 20.3644 150.754 20.3849L150.986 20.3834ZM163.154 13.371L163.319 15.1643L162.004 15.2817C160.978 15.3069 160.004 15.7362 159.296 16.4754C158.74 17.1647 158.449 18.0285 158.475 18.9119V26.2195H156.468V13.6866H158.452V15.1844C158.778 14.7635 159.187 14.4128 159.654 14.1533C160.466 13.7313 161.359 13.4872 162.274 13.4377L163.154 13.371ZM176 26.2284L173.235 26.2201L166.948 20.6506V26.2216H164.939V8.22241H166.948V18.9449L172.63 13.6921H175.316L168.758 19.7217L176 26.2284Z" fill="#1B3E67"/>
</svg>
