<svg width="16" height="16" viewBox="0 0 16 16" fill="none" xmlns="http://www.w3.org/2000/svg">
<path fill-rule="evenodd" clip-rule="evenodd" d="M3.05 2.95091C2.47499 2.95091 2 3.42171 2 4.01341V13.4375C2 14.0292 2.47499 14.5 3.05 14.5H12.95C13.525 14.5 14 14.0292 14 13.4375V4.01341C14 3.42171 13.525 2.95091 12.95 2.95091H3.05ZM0.5 4.01341C0.5 2.60308 1.63679 1.45091 3.05 1.45091H12.95C14.3632 1.45091 15.5 2.60308 15.5 4.01341V13.4375C15.5 14.8478 14.3632 16 12.95 16H3.05C1.63679 16 0.5 14.8478 0.5 13.4375V4.01341Z" fill="#2D3748"/>
<path fill-rule="evenodd" clip-rule="evenodd" d="M11.0006 0C11.4148 0 11.7506 0.335786 11.7506 0.75V3.65C11.7506 4.06421 11.4148 4.4 11.0006 4.4C10.5864 4.4 10.2506 4.06421 10.2506 3.65V0.75C10.2506 0.335786 10.5864 0 11.0006 0Z" fill="#2D3748"/>
<path fill-rule="evenodd" clip-rule="evenodd" d="M5.00024 0C5.41446 0 5.75024 0.335786 5.75024 0.75V3.65C5.75024 4.06421 5.41446 4.4 5.00024 4.4C4.58603 4.4 4.25024 4.06421 4.25024 3.65V0.75C4.25024 0.335786 4.58603 0 5.00024 0Z" fill="#2D3748"/>
<path fill-rule="evenodd" clip-rule="evenodd" d="M0.5 6.54909C0.5 6.13487 0.835786 5.79909 1.25 5.79909H14.75C15.1642 5.79909 15.5 6.13487 15.5 6.54909C15.5 6.9633 15.1642 7.29909 14.75 7.29909H1.25C0.835786 7.29909 0.5 6.9633 0.5 6.54909Z" fill="#2D3748"/>
</svg>
