<svg width="16" height="16" viewBox="0 0 16 16" fill="none" xmlns="http://www.w3.org/2000/svg">
<path fill-rule="evenodd" clip-rule="evenodd" d="M2.36111 1.5C2.13273 1.5 1.9137 1.59072 1.75221 1.75221C1.59072 1.9137 1.5 2.13273 1.5 2.36111V13.4393L3.44189 11.4974C3.58254 11.3568 3.77331 11.2778 3.97222 11.2778H13.6389C13.8673 11.2778 14.0863 11.1871 14.2478 11.0256C14.4093 10.8641 14.5 10.645 14.5 10.4167V2.36111C14.5 2.13273 14.4093 1.9137 14.2478 1.75221C14.0863 1.59072 13.8673 1.5 13.6389 1.5H2.36111ZM0.691553 0.691553C1.13435 0.248759 1.73491 0 2.36111 0H13.6389C14.2651 0 14.8657 0.248759 15.3084 0.691553C15.7512 1.13435 16 1.73491 16 2.36111V10.4167C16 11.0429 15.7512 11.6434 15.3084 12.0862C14.8657 12.529 14.2651 12.7778 13.6389 12.7778H4.28288L1.28033 15.7803C1.06583 15.9948 0.743243 16.059 0.462987 15.9429C0.182732 15.8268 0 15.5533 0 15.25V2.36111C0 1.73491 0.248759 1.13435 0.691553 0.691553Z" fill="#2D3748"/>
</svg>
