<svg width="16" height="16" viewBox="0 0 16 16" fill="none" xmlns="http://www.w3.org/2000/svg">
<mask id="mask0_12231_956" style="mask-type:luminance" maskUnits="userSpaceOnUse" x="0" y="-1" width="16" height="17">
<path d="M16 -0.00292969H0V15.9971H16V-0.00292969Z" fill="white"/>
</mask>
<g mask="url(#mask0_12231_956)">
<path d="M13.5369 -0.00291727C13.2151 -0.0039424 12.8963 0.0585194 12.5987 0.180891C12.3011 0.303263 12.0306 0.48314 11.8026 0.710221C11.3833 1.10139 11.1269 1.63625 11.0845 2.20811C11.0504 2.39263 10.9525 2.55928 10.8079 2.67895L9.40028 4.15035L8.41935 3.16942C8.08641 2.83667 7.63496 2.64975 7.16424 2.64975C6.69353 2.64975 6.24208 2.83667 5.90914 3.16942L2.20612 6.87244L2.69659 7.36291L0 10.0575L5.94151 15.9971L8.63221 13.3025L9.12268 13.7929L12.8267 10.0889C12.9916 9.92413 13.1224 9.72847 13.2116 9.51311C13.3008 9.29776 13.3468 9.06693 13.3468 8.83382C13.3468 8.60071 13.3008 8.36988 13.2116 8.15452C13.1224 7.93917 12.9916 7.74351 12.8267 7.57871L11.8457 6.6586L13.3466 5.15679C13.4419 5.04603 13.5667 4.96471 13.7066 4.92235C14.3011 4.89256 14.8621 4.638 15.2761 4.21019C15.737 3.74577 15.9964 3.11845 15.998 2.46413C15.9831 1.81552 15.7192 1.19753 15.261 0.738224C14.8028 0.278923 14.1854 0.0135402 13.5369 -0.00291727ZM5.94151 13.9165L5.75612 13.7301L6.95089 12.5354L5.9111 11.4946L4.71633 12.6904L4.53191 12.5059L5.23622 11.8016L4.19545 10.7618L3.49212 11.4652L3.30673 11.2778L4.01104 10.5735L2.97125 9.53666L2.26694 10.241L2.08252 10.0556L3.73539 8.4027L7.59438 12.2587L5.94151 13.9165ZM14.2235 3.18021C14.0434 3.35837 13.801 3.45936 13.5477 3.46174C13.057 3.53918 12.6072 3.78135 12.2725 4.14839L10.8011 5.61979C10.6708 5.75178 10.5672 5.90765 10.496 6.07887C10.3878 6.33999 10.3594 6.62731 10.4144 6.90456C10.4694 7.1818 10.6053 7.43653 10.805 7.63659L11.7859 8.61752C11.8141 8.64538 11.8361 8.67878 11.8507 8.71562C11.8668 8.75342 11.8748 8.79419 11.8742 8.83529C11.8739 8.87545 11.8656 8.91514 11.8497 8.95202C11.8348 8.98847 11.8132 9.02176 11.7859 9.05011L9.12268 11.7124L4.28668 6.87244L6.94991 4.20921C7.00547 4.15211 7.08117 4.11902 7.16081 4.117C7.20059 4.11695 7.23997 4.12495 7.27656 4.14054C7.31346 4.15543 7.34686 4.17781 7.37465 4.20627L8.35559 5.1872C8.48808 5.32004 8.64548 5.42544 8.81877 5.49736C8.99206 5.56927 9.17784 5.60629 9.36546 5.60629C9.55308 5.60629 9.73886 5.56927 9.91215 5.49736C10.0854 5.42544 10.2428 5.32004 10.3753 5.1872L11.8114 3.74817C12.2116 3.38831 12.4704 2.89757 12.5412 2.36407C12.5541 2.13331 12.6557 1.91645 12.8247 1.75884C12.9167 1.66552 13.0264 1.59144 13.1473 1.54092C13.2682 1.4904 13.398 1.46444 13.529 1.46456C13.7907 1.47197 14.0397 1.57925 14.2248 1.76439C14.41 1.94952 14.5173 2.19849 14.5247 2.46021C14.524 2.59358 14.4969 2.72551 14.4451 2.8484C14.3932 2.97128 14.3176 3.08272 14.2225 3.17629" fill="#2D3748"/>
</g>
</svg>
