<svg width="16" height="16" viewBox="0 0 16 16" fill="none" xmlns="http://www.w3.org/2000/svg">
<path fill-rule="evenodd" clip-rule="evenodd" d="M3.54744 10.8749H13.25C13.6642 10.8749 14 11.2107 14 11.6249C14 12.0391 13.6642 12.3749 13.25 12.3749H3.5532C3.41184 12.3774 3.27268 12.4069 3.1436 12.4614C3.01319 12.5165 2.89608 12.5958 2.79855 12.6942C2.70105 12.7925 2.62503 12.9079 2.57411 13.0334C2.5232 13.1589 2.49818 13.2925 2.5001 13.4267C2.50604 13.8408 2.17511 14.1814 1.76094 14.1873C1.34677 14.1933 1.0062 13.8624 1.00026 13.4482C0.995448 13.1129 1.05806 12.7803 1.18416 12.4695C1.31024 12.1587 1.49713 11.8763 1.73342 11.638C1.96968 11.3997 2.2507 11.2102 2.56005 11.0796C2.86936 10.949 3.20138 10.8796 3.53724 10.875L3.54744 10.8749Z" fill="#2D3748"/>
<path fill-rule="evenodd" clip-rule="evenodd" d="M3.5305 0.000169635C3.53586 5.67436e-05 3.54123 0 3.54662 0H13.25C13.6642 0 14 0.335786 14 0.75V15.25C14 15.6642 13.6642 16 13.25 16H3.53608C2.85859 15.9905 2.2097 15.7175 1.73301 15.2365C1.2572 14.7565 0.992065 14.1081 1.00018 13.4326V2.5674C0.99618 2.23409 1.05879 1.90354 1.18416 1.59455C1.31024 1.28378 1.49713 1.00137 1.73342 0.763076C1.96968 0.524811 2.2507 0.335297 2.56005 0.204661C2.8673 0.0749069 3.19694 0.0055688 3.5305 0.000169635ZM3.5532 1.5H12.5V14.5H3.55254C3.26517 14.4948 2.99441 14.3784 2.79838 14.1806C2.6018 13.9823 2.49622 13.7186 2.5001 13.4483L2.50018 2.5625L2.5001 2.55174C2.49818 2.41754 2.52321 2.28396 2.57411 2.15848C2.62504 2.03297 2.70105 1.91757 2.79855 1.81925C2.89608 1.72089 3.0132 1.64156 3.1436 1.58649C3.27268 1.53199 3.41184 1.50249 3.5532 1.5Z" fill="#2D3748"/>
</svg>
