<svg width="16" height="16" viewBox="0 0 16 16" fill="none" xmlns="http://www.w3.org/2000/svg">
<path fill-rule="evenodd" clip-rule="evenodd" d="M0 4.75C0 2.12665 2.12665 0 4.75 0H11.25C13.8734 0 16 2.12665 16 4.75V11.25C16 13.8734 13.8734 16 11.25 16H4.75C2.12665 16 0 13.8734 0 11.25V4.75ZM4.75 1.5C2.95507 1.5 1.5 2.95508 1.5 4.75V11.25C1.5 13.0449 2.95508 14.5 4.75 14.5H11.25C13.0449 14.5 14.5 13.0449 14.5 11.25V4.75C14.5 2.95507 13.0449 1.5 11.25 1.5H4.75Z" fill="#2D3748"/>
<path fill-rule="evenodd" clip-rule="evenodd" d="M12.1553 6.21967C12.4482 6.51256 12.4482 6.98744 12.1553 7.28033L8.53033 10.9053C8.23744 11.1982 7.76256 11.1982 7.46967 10.9053L3.84467 7.28033C3.55178 6.98744 3.55178 6.51256 3.84467 6.21967C4.13756 5.92678 4.61244 5.92678 4.90533 6.21967L8 9.31434L11.0947 6.21967C11.3876 5.92678 11.8624 5.92678 12.1553 6.21967Z" fill="#2D3748"/>
</svg>
