<svg width="16" height="16" viewBox="0 0 16 16" fill="none" xmlns="http://www.w3.org/2000/svg">
<path fill-rule="evenodd" clip-rule="evenodd" d="M12.251 1.88626C12.251 1.88629 12.251 1.88623 12.251 1.88626L2.51857 11.6198L1.81927 14.1841L4.38419 13.4843L14.1167 3.75162C14.3641 3.50427 14.5032 3.16871 14.5032 2.8189C14.5032 2.4691 14.3642 2.13361 14.1167 1.88626C13.8693 1.63891 13.5338 1.49995 13.1839 1.49995C12.834 1.49995 12.4984 1.63897 12.251 1.88626ZM11.1901 0.825638C11.7189 0.296991 12.4361 0 13.1839 0C13.9317 0 14.6489 0.296991 15.1776 0.825638C15.7064 1.35429 16.0035 2.07128 16.0035 2.8189C16.0035 3.56652 15.7064 4.28352 15.1776 4.81217L5.30437 14.6857C5.21208 14.778 5.09728 14.8446 4.97133 14.879L0.947657 15.9766C0.687944 16.0475 0.41017 15.9738 0.21979 15.7835C0.0294114 15.5932 -0.0443785 15.3155 0.0264352 15.0558L1.12347 11.0332C1.1578 10.9073 1.2244 10.7925 1.31667 10.7002L11.1901 0.825638Z" fill="#2D3748"/>
</svg>
