<svg width="16" height="16" viewBox="0 0 16 16" fill="none" xmlns="http://www.w3.org/2000/svg">
<path fill-rule="evenodd" clip-rule="evenodd" d="M2.19794 1.5C2.19863 1.5 2.19931 1.5 2.2 1.5H13.8021C14.3824 1.50159 14.9398 1.7308 15.3522 2.13958C15.7647 2.54857 15.9984 3.10419 16 3.68541L16 3.6875L16 12.3125L16 12.3146C15.9984 12.8958 15.7647 13.4514 15.3522 13.8604C14.9398 14.2692 14.3824 14.4984 13.8021 14.5L13.8 14.5H2.2L2.19794 14.5C1.61759 14.4984 1.06017 14.2692 0.64784 13.8604C0.235293 13.4514 0.0016247 12.8958 2.92063e-06 12.3146L0 12.3125V3.68541C0.00162178 3.1042 0.235293 2.54857 0.64784 2.13958C1.05984 1.73113 1.61669 1.50196 2.19655 1.50001M13.7988 3H2.20122C2.0134 3.00074 1.83477 3.07508 1.7039 3.20482C1.57326 3.33434 1.50073 3.50841 1.5 3.68874V12.3113C1.50073 12.4916 1.57326 12.6657 1.7039 12.7952C1.83476 12.9249 2.01339 12.9993 2.2012 13H13.7988C13.9866 12.9993 14.1652 12.9249 14.2961 12.7952C14.4267 12.6657 14.4992 12.4917 14.5 12.3115V3.68853C14.4992 3.50827 14.4267 3.33428 14.2961 3.20482C14.1652 3.07508 13.9866 3.00074 13.7988 3Z" fill="#2D3748"/>
<path fill-rule="evenodd" clip-rule="evenodd" d="M0.133901 3.26095C0.370057 2.92065 0.837366 2.83622 1.17766 3.07238L8.00007 7.80689L14.8225 3.07238C15.1628 2.83622 15.6301 2.92065 15.8662 3.26095C16.1024 3.60124 16.018 4.06855 15.6777 4.30471L8.42766 9.33596C8.17053 9.51441 7.82961 9.51441 7.57247 9.33596L0.322469 4.30471C-0.0178296 4.06855 -0.102254 3.60124 0.133901 3.26095Z" fill="#2D3748"/>
</svg>
