<svg width="16" height="16" viewBox="0 0 16 16" fill="none" xmlns="http://www.w3.org/2000/svg">
<path fill-rule="evenodd" clip-rule="evenodd" d="M15.7799 10.913C16.0728 11.2059 16.0728 11.6808 15.7799 11.9737L11.9737 15.7799C11.6808 16.0728 11.2059 16.0728 10.913 15.7799C10.6201 15.487 10.6201 15.0122 10.913 14.7193L14.7193 10.913C15.0122 10.6201 15.487 10.6201 15.7799 10.913Z" fill="#2D3748"/>
<path fill-rule="evenodd" clip-rule="evenodd" d="M10.913 10.913C11.2059 10.6201 11.6808 10.6201 11.9737 10.913L15.7799 14.7193C16.0728 15.0122 16.0728 15.487 15.7799 15.7799C15.487 16.0728 15.0122 16.0728 14.7193 15.7799L10.913 11.9737C10.6201 11.6808 10.6201 11.2059 10.913 10.913Z" fill="#2D3748"/>
<path fill-rule="evenodd" clip-rule="evenodd" d="M5.34766 6.36914C5.34766 5.95493 5.68344 5.61914 6.09766 5.61914H11.4445C11.8587 5.61914 12.1945 5.95493 12.1945 6.36914C12.1945 6.78335 11.8587 7.11914 11.4445 7.11914H6.09766C5.68344 7.11914 5.34766 6.78335 5.34766 6.36914Z" fill="#2D3748"/>
<path fill-rule="evenodd" clip-rule="evenodd" d="M10.4219 3.73795C10.9461 2.39302 12.2108 1.5 13.7094 1.5H15.25C15.6642 1.5 16 1.16421 16 0.75C16 0.335786 15.6642 0 15.25 0H13.7094C11.5839 0 9.76802 1.28082 9.02287 3.19691L5.57812 12.262C5.05391 13.607 3.78919 14.5 2.29062 14.5H0.75C0.335786 14.5 0 14.8358 0 15.25C0 15.6642 0.335786 16 0.75 16H2.29062C4.4161 16 6.23198 14.7192 6.97713 12.8031L10.4219 3.73795Z" fill="#2D3748"/>
</svg>
