<svg width="16" height="16" viewBox="0 0 16 16" fill="none" xmlns="http://www.w3.org/2000/svg">
<path fill-rule="evenodd" clip-rule="evenodd" d="M5.08334 8.00092C5.08334 7.5867 5.41913 7.25092 5.83334 7.25092H10.1667C10.5809 7.25092 10.9167 7.5867 10.9167 8.00092V15.2509C10.9167 15.6651 10.5809 16.0009 10.1667 16.0009C9.75246 16.0009 9.41668 15.6651 9.41668 15.2509V8.75092H6.58334V15.2509C6.58334 15.6651 6.24756 16.0009 5.83334 16.0009C5.41913 16.0009 5.08334 15.6651 5.08334 15.2509V8.00092Z" fill="#2D3748"/>
<path fill-rule="evenodd" clip-rule="evenodd" d="M7.53844 0.159759C7.8097 -0.0520324 8.1903 -0.0520324 8.46156 0.159759L14.9616 5.23476C15.1436 5.37689 15.25 5.59496 15.25 5.82592V13.8009C15.25 14.3835 15.0195 14.9427 14.6083 15.3555C14.197 15.7684 13.6385 16.0009 13.0556 16.0009H2.94444C2.36151 16.0009 1.80304 15.7684 1.39172 15.3555C0.980503 14.9427 0.75 14.3835 0.75 13.8009V5.82592C0.75 5.59496 0.856405 5.37689 1.03844 5.23476L7.53844 0.159759ZM2.25 6.19186V13.8009C2.25 13.9875 2.32386 14.1659 2.45441 14.2969C2.58487 14.4279 2.7612 14.5009 2.94444 14.5009H13.0556C13.2388 14.5009 13.4151 14.4279 13.5456 14.2969C13.6761 14.1659 13.75 13.9875 13.75 13.8009V6.19186L8 1.70244L2.25 6.19186Z" fill="#2D3748"/>
</svg>
