<svg width="16" height="16" viewBox="0 0 16 16" fill="none" xmlns="http://www.w3.org/2000/svg">
<path fill-rule="evenodd" clip-rule="evenodd" d="M8 1.5C4.41015 1.5 1.5 4.41015 1.5 8C1.5 11.5899 4.41015 14.5 8 14.5C11.5899 14.5 14.5 11.5899 14.5 8C14.5 4.41015 11.5899 1.5 8 1.5ZM0 8C0 3.58172 3.58172 0 8 0C12.4183 0 16 3.58172 16 8C16 12.4183 12.4183 16 8 16C3.58172 16 0 12.4183 0 8Z" fill="#2D3748"/>
<path fill-rule="evenodd" clip-rule="evenodd" d="M8 7.25C8.41421 7.25 8.75 7.58579 8.75 8V10.9C8.75 11.3142 8.41421 11.65 8 11.65C7.58579 11.65 7.25 11.3142 7.25 10.9V8C7.25 7.58579 7.58579 7.25 8 7.25Z" fill="#2D3748"/>
<path fill-rule="evenodd" clip-rule="evenodd" d="M7.25 5.09961C7.25 4.6854 7.58579 4.34961 8 4.34961H8.006C8.42021 4.34961 8.756 4.6854 8.756 5.09961C8.756 5.51382 8.42021 5.84961 8.006 5.84961H8C7.58579 5.84961 7.25 5.51382 7.25 5.09961Z" fill="#2D3748"/>
</svg>
