<svg width="16" height="16" viewBox="0 0 16 16" fill="none" xmlns="http://www.w3.org/2000/svg">
<path fill-rule="evenodd" clip-rule="evenodd" d="M14.188 1.72689C14.0114 1.5777 13.7832 1.49603 13.5466 1.50015L13.5335 1.50038L12.3166 1.50026V7.97512H13.5466C13.7832 7.97924 14.0114 7.89768 14.188 7.74849C14.3528 7.60927 14.4617 7.42084 14.5 7.21608V2.2593C14.4617 2.05454 14.3528 1.86611 14.188 1.72689ZM10.8166 8.56361L8.16726 14.4298C7.9482 14.3601 7.74754 14.2402 7.58311 14.0784C7.31059 13.8102 7.15973 13.4491 7.15973 13.075V10.1751C7.15973 9.76088 6.82394 9.42509 6.40973 9.42509H2.24006L2.23171 9.42514C2.12501 9.42633 2.01966 9.40465 1.92311 9.362C1.82658 9.31937 1.74161 9.25702 1.67359 9.18004C1.60561 9.1031 1.55612 9.01334 1.52778 8.91726C1.49949 8.82137 1.49274 8.72085 1.50785 8.62242C1.50782 8.62258 1.50787 8.62226 1.50785 8.62242L2.52437 2.0982L2.52457 2.09697C2.54981 1.93318 2.6347 1.7813 2.76702 1.67062C2.89963 1.5597 3.0705 1.49824 3.24835 1.50022L10.8166 1.50026V8.56361ZM13.5276 0.000262055C14.1223 -0.00838372 14.7016 0.197145 15.156 0.581007C15.6125 0.966661 15.9116 1.50606 15.993 2.09811C15.9977 2.13195 16 2.16607 16 2.20024V7.27514C16 7.3093 15.9977 7.34343 15.993 7.37727C15.9116 7.96932 15.6125 8.50872 15.156 8.89437C14.7016 9.27824 14.1223 9.48376 13.5276 9.47512H12.0508L9.30332 15.5587C9.182 15.8273 8.91456 16 8.61979 16C7.83858 16 7.08698 15.6947 6.53097 15.1475C5.97456 14.5999 5.65973 13.8547 5.65973 13.075V10.9251H2.2438C1.92492 10.928 1.60882 10.863 1.31707 10.7341C1.02387 10.6046 0.761812 10.4135 0.549529 10.1733C0.337211 9.93298 0.17983 9.64933 0.0890752 9.34169C-0.00168937 9.03403 -0.02345 8.71034 0.0254487 8.3933L1.04207 1.86851C1.04203 1.86873 1.0421 1.86829 1.04207 1.86851C1.12351 1.34106 1.39557 0.862228 1.8046 0.520081C2.21232 0.179019 2.72925 -0.00456181 3.26044 0.000262055H13.5276Z" fill="#2D3748"/>
</svg>
