<svg width="16" height="16" viewBox="0 0 16 16" fill="none" xmlns="http://www.w3.org/2000/svg">
<path fill-rule="evenodd" clip-rule="evenodd" d="M1.81198 14.2731C1.98859 14.4223 2.21679 14.504 2.45344 14.4999L2.46649 14.4996L3.68345 14.4997L3.68345 8.02488L2.45343 8.02488C2.21679 8.02076 1.98859 8.10232 1.81198 8.25151C1.64717 8.39073 1.53834 8.57916 1.5 8.78392L1.5 13.7407C1.53834 13.9455 1.64717 14.1339 1.81198 14.2731ZM5.18345 7.43638L5.18345 14.4997L12.7516 14.4997C12.9295 14.5017 13.1004 14.4403 13.233 14.3294C13.3653 14.2187 13.4502 14.0668 13.4754 13.903L13.4756 13.9018L14.4921 7.37806C14.4921 7.37791 14.4921 7.3782 14.4921 7.37806C14.5072 7.27962 14.5005 7.17864 14.4722 7.08274C14.4439 6.98666 14.3944 6.8969 14.3264 6.81996C14.2584 6.74298 14.1734 6.68063 14.0769 6.638C13.9803 6.59535 13.875 6.57367 13.7683 6.57486L13.7599 6.57495L9.59027 6.57491C9.17606 6.57491 8.84027 6.23912 8.84027 5.82491L8.84028 2.92496C8.84028 2.55095 8.68941 2.18978 8.41689 1.92159C8.25246 1.75976 8.0518 1.6399 7.83274 1.57017L5.18345 7.43638ZM3.94922 6.52488L6.69668 0.441306C6.818 0.172664 7.08544 -7.79336e-07 7.38021 -7.53566e-07C8.16142 -6.8527e-07 8.91302 0.305293 9.46903 0.852471C10.0254 1.40005 10.3403 2.1453 10.3403 2.92496L10.3403 5.07491L13.7561 5.07491C14.075 5.072 14.3911 5.137 14.6829 5.26588C14.9761 5.39538 15.2382 5.58649 15.4505 5.82674C15.6628 6.06702 15.8202 6.35067 15.9109 6.65831C16.0017 6.96597 16.0235 7.28966 15.9746 7.6067L14.9579 14.1315C14.958 14.1313 14.9579 14.1317 14.9579 14.1315C14.8765 14.6589 14.6044 15.1378 14.1954 15.4799C13.7877 15.821 13.2707 16.0046 12.7396 15.9997L2.47243 15.9997C1.8777 16.0084 1.29843 15.8029 0.844014 15.419C0.387475 15.0333 0.0883609 14.4939 0.00698585 13.9019C0.00233383 13.868 1.89364e-07 13.8339 1.92351e-07 13.7998L6.36013e-07 8.72485C6.39e-07 8.69069 0.00233428 8.65657 0.00698631 8.62273C0.0883615 8.03068 0.387476 7.49128 0.844015 7.10563C1.29844 6.72176 1.8777 6.51623 2.47243 6.52488L3.94922 6.52488Z" fill="#2D3748"/>
</svg>
