<svg width="16" height="16" viewBox="0 0 16 16" fill="none" xmlns="http://www.w3.org/2000/svg">
<path fill-rule="evenodd" clip-rule="evenodd" d="M2.13095 11.9268C1.798 11.9268 1.5 12.2074 1.5 12.5885C1.5 12.9697 1.798 13.2503 2.13095 13.2503C2.4639 13.2503 2.7619 12.9697 2.7619 12.5885C2.7619 12.2074 2.4639 11.9268 2.13095 11.9268ZM0 12.5885C0 11.4103 0.938544 10.4268 2.13095 10.4268C3.32336 10.4268 4.2619 11.4103 4.2619 12.5885C4.2619 13.7667 3.32336 14.7503 2.13095 14.7503C0.938544 14.7503 0 13.7667 0 12.5885Z" fill="#2D3748"/>
<path fill-rule="evenodd" clip-rule="evenodd" d="M6.27353 6.2793C5.94058 6.2793 5.64258 6.55989 5.64258 6.94106C5.64258 7.32223 5.94058 7.60283 6.27353 7.60283C6.60648 7.60283 6.90448 7.32223 6.90448 6.94106C6.90448 6.55989 6.60648 6.2793 6.27353 6.2793ZM4.14258 6.94106C4.14258 5.76284 5.08112 4.7793 6.27353 4.7793C7.46594 4.7793 8.40448 5.76284 8.40448 6.94106C8.40448 8.11928 7.46594 9.10283 6.27353 9.10283C5.08112 9.10283 4.14258 8.11928 4.14258 6.94106Z" fill="#2D3748"/>
<path fill-rule="evenodd" clip-rule="evenodd" d="M10.4161 9.80859C10.0832 9.80859 9.78516 10.0892 9.78516 10.4704C9.78516 10.8515 10.0832 11.1321 10.4161 11.1321C10.7491 11.1321 11.0471 10.8515 11.0471 10.4704C11.0471 10.0892 10.7491 9.80859 10.4161 9.80859ZM8.28516 10.4704C8.28516 9.29214 9.2237 8.30859 10.4161 8.30859C11.6085 8.30859 12.5471 9.29214 12.5471 10.4704C12.5471 11.6486 11.6085 12.6321 10.4161 12.6321C9.2237 12.6321 8.28516 11.6486 8.28516 10.4704Z" fill="#2D3748"/>
<path fill-rule="evenodd" clip-rule="evenodd" d="M13.8692 2.75C13.5363 2.75 13.2383 3.03059 13.2383 3.41176C13.2383 3.79294 13.5363 4.07353 13.8692 4.07353C14.2022 4.07353 14.5002 3.79294 14.5002 3.41176C14.5002 3.03059 14.2022 2.75 13.8692 2.75ZM11.7383 3.41176C11.7383 2.23354 12.6768 1.25 13.8692 1.25C15.0616 1.25 16.0002 2.23354 16.0002 3.41176C16.0002 4.58999 15.0616 5.57353 13.8692 5.57353C12.6768 5.57353 11.7383 4.58999 11.7383 3.41176Z" fill="#2D3748"/>
<path fill-rule="evenodd" clip-rule="evenodd" d="M13.5085 4.14968C13.8806 4.33166 14.0347 4.78083 13.8528 5.15293L11.7813 9.38822C11.5993 9.76031 11.1502 9.91443 10.7781 9.73244C10.406 9.55045 10.2519 9.10128 10.4339 8.72919L12.5053 4.4939C12.6873 4.1218 13.1364 3.96769 13.5085 4.14968Z" fill="#2D3748"/>
<path fill-rule="evenodd" clip-rule="evenodd" d="M6.72805 7.52521C6.99029 7.20457 7.46279 7.15723 7.78343 7.41946L9.50962 8.83122C9.83026 9.09346 9.8776 9.56596 9.61537 9.8866C9.35314 10.2072 8.88063 10.2546 8.55999 9.99235L6.8338 8.58059C6.51317 8.31835 6.46582 7.84585 6.72805 7.52521Z" fill="#2D3748"/>
<path fill-rule="evenodd" clip-rule="evenodd" d="M5.64721 7.37186C5.99417 7.59812 6.09201 8.0628 5.86576 8.40976L3.79433 11.5862C3.56807 11.9332 3.10339 12.031 2.75643 11.8048C2.40947 11.5785 2.31162 11.1138 2.53788 10.7669L4.60931 7.59041C4.83556 7.24345 5.30025 7.1456 5.64721 7.37186Z" fill="#2D3748"/>
</svg>
