<svg width="16" height="16" viewBox="0 0 16 16" fill="none" xmlns="http://www.w3.org/2000/svg">
<path fill-rule="evenodd" clip-rule="evenodd" d="M2.5625 2.25C1.98177 2.25 1.5 2.72661 1.5 3.32815V9.78337C1.5 10.3849 1.98177 10.8615 2.5625 10.8615H13.4375C14.0182 10.8615 14.5 10.3849 14.5 9.78337V3.32815C14.5 2.72661 14.0182 2.25 13.4375 2.25H2.5625ZM0 3.32815C0 1.91037 1.1412 0.75 2.5625 0.75H13.4375C14.8588 0.75 16 1.91037 16 3.32815V9.78337C16 11.2011 14.8588 12.3615 13.4375 12.3615H2.5625C1.1412 12.3615 0 11.2011 0 9.78337V3.32815Z" fill="#2D3748"/>
<path fill-rule="evenodd" clip-rule="evenodd" d="M4.34961 14.5C4.34961 14.0858 4.6854 13.75 5.09961 13.75H10.8996C11.3138 13.75 11.6496 14.0858 11.6496 14.5C11.6496 14.9142 11.3138 15.25 10.8996 15.25H5.09961C4.6854 15.25 4.34961 14.9142 4.34961 14.5Z" fill="#2D3748"/>
<path fill-rule="evenodd" clip-rule="evenodd" d="M8 10.8613C8.41421 10.8613 8.75 11.1971 8.75 11.6113V14.4998C8.75 14.914 8.41421 15.2498 8 15.2498C7.58579 15.2498 7.25 14.914 7.25 14.4998V11.6113C7.25 11.1971 7.58579 10.8613 8 10.8613Z" fill="#2D3748"/>
</svg>
