<svg width="16" height="16" viewBox="0 0 16 16" fill="none" xmlns="http://www.w3.org/2000/svg">
<path fill-rule="evenodd" clip-rule="evenodd" d="M8.00067 0C8.41488 0 8.75067 0.335786 8.75067 0.75V15.25C8.75067 15.6642 8.41488 16 8.00067 16C7.58646 16 7.25067 15.6642 7.25067 15.25V0.75C7.25067 0.335786 7.58646 0 8.00067 0Z" fill="#2D3748"/>
<path fill-rule="evenodd" clip-rule="evenodd" d="M3.77379 3.49883C4.41197 2.93804 5.259 2.6366 6.12506 2.6366H11.7506C12.1648 2.6366 12.5006 2.97238 12.5006 3.3866C12.5006 3.80081 12.1648 4.1366 11.7506 4.1366H6.12506C5.5987 4.1366 5.11034 4.32121 4.76393 4.62561C4.42063 4.92727 4.25 5.31403 4.25 5.69331C4.25 6.07258 4.42063 6.45934 4.76393 6.761C5.11034 7.0654 5.5987 7.25001 6.12506 7.25001H9.87494C10.741 7.25001 11.588 7.55146 12.2262 8.11224C12.8675 8.67576 13.25 9.46244 13.25 10.3067C13.25 11.151 12.8675 11.9377 12.2262 12.5012C11.588 13.062 10.741 13.3634 9.87494 13.3634H3.5C3.08579 13.3634 2.75 13.0276 2.75 12.6134C2.75 12.1992 3.08579 11.8634 3.5 11.8634H9.87494C10.4013 11.8634 10.8897 11.6788 11.2361 11.3744C11.5794 11.0728 11.75 10.686 11.75 10.3067C11.75 9.92745 11.5794 9.54069 11.2361 9.23902C10.8897 8.93462 10.4013 8.75001 9.87494 8.75001H6.12506C5.259 8.75001 4.41197 8.44857 3.77379 7.88779C3.1325 7.32427 2.75 6.53759 2.75 5.69331C2.75 4.84902 3.1325 4.06234 3.77379 3.49883Z" fill="#2D3748"/>
</svg>
