<svg width="16" height="16" viewBox="0 0 16 16" fill="none" xmlns="http://www.w3.org/2000/svg">
<path fill-rule="evenodd" clip-rule="evenodd" d="M0 5.58301C0 5.16879 0.335786 4.83301 0.75 4.83301H15.25C15.6642 4.83301 16 5.16879 16 5.58301C16 5.99722 15.6642 6.33301 15.25 6.33301H0.75C0.335786 6.33301 0 5.99722 0 5.58301Z" fill="#2D3748"/>
<path fill-rule="evenodd" clip-rule="evenodd" d="M0 10.417C0 10.0028 0.335786 9.66699 0.75 9.66699H15.25C15.6642 9.66699 16 10.0028 16 10.417C16 10.8312 15.6642 11.167 15.25 11.167H0.75C0.335786 11.167 0 10.8312 0 10.417Z" fill="#2D3748"/>
<path fill-rule="evenodd" clip-rule="evenodd" d="M6.28061 0.00587056C6.69162 0.0572474 6.98316 0.43209 6.93179 0.843105L5.11929 15.3431C5.06791 15.7541 4.69307 16.0457 4.28205 15.9943C3.87104 15.9429 3.57949 15.5681 3.63087 15.1571L5.44337 0.657053C5.49475 0.246038 5.86959 -0.0455063 6.28061 0.00587056Z" fill="#2D3748"/>
<path fill-rule="evenodd" clip-rule="evenodd" d="M11.7181 0.00587056C12.1291 0.0572474 12.4207 0.43209 12.3693 0.843105L10.5568 15.3431C10.5054 15.7541 10.1306 16.0457 9.71955 15.9943C9.30854 15.9429 9.01699 15.5681 9.06837 15.1571L10.8809 0.657053C10.9322 0.246038 11.3071 -0.0455063 11.7181 0.00587056Z" fill="#2D3748"/>
</svg>
