<svg width="16" height="16" viewBox="0 0 16 16" fill="none" xmlns="http://www.w3.org/2000/svg">
<path fill-rule="evenodd" clip-rule="evenodd" d="M1.92385 10.8282C2.67448 10.0839 3.6912 9.66699 4.75 9.66699H11.25C12.3088 9.66699 13.3255 10.0839 14.0761 10.8282C14.827 11.5726 15.25 12.5836 15.25 13.6392V15.2503C15.25 15.6645 14.9142 16.0003 14.5 16.0003C14.0858 16.0003 13.75 15.6645 13.75 15.2503V13.6392C13.75 12.9856 13.4882 12.3575 13.02 11.8934C12.5517 11.429 11.9151 11.167 11.25 11.167H4.75C4.08489 11.167 3.44831 11.429 2.97995 11.8934C2.51181 12.3575 2.25 12.9856 2.25 13.6392V15.2503C2.25 15.6645 1.91421 16.0003 1.5 16.0003C1.08579 16.0003 0.75 15.6645 0.75 15.2503V13.6392C0.75 12.5836 1.17301 11.5726 1.92385 10.8282Z" fill="#2D3748"/>
<path fill-rule="evenodd" clip-rule="evenodd" d="M8 1.5C6.61321 1.5 5.5 2.61291 5.5 3.97222C5.5 5.33154 6.61321 6.44444 8 6.44444C9.38679 6.44444 10.5 5.33154 10.5 3.97222C10.5 2.61291 9.38679 1.5 8 1.5ZM4 3.97222C4 1.77237 5.79694 0 8 0C10.2031 0 12 1.77237 12 3.97222C12 6.17208 10.2031 7.94444 8 7.94444C5.79694 7.94444 4 6.17208 4 3.97222Z" fill="#2D3748"/>
</svg>
