<svg width="16" height="16" viewBox="0 0 16 16" fill="none" xmlns="http://www.w3.org/2000/svg">
<path d="M13.7737 15.9971C13.7079 15.9971 13.6412 15.9971 13.5744 15.9881H13.5584C11.2043 15.7306 8.94267 14.9278 6.95305 13.6434C5.10585 12.468 3.53802 10.9029 2.35941 9.05776C1.06923 7.06336 0.264798 4.79417 0.0107455 2.43247V2.41951C-0.0305235 1.95651 0.0741831 1.4922 0.310176 1.09173C0.54617 0.691254 0.90161 0.374704 1.32663 0.186484C1.6092 0.0614314 1.91482 -0.00308816 2.22383 -0.00292429H4.41698C4.95405 -0.00410656 5.47343 0.189014 5.87927 0.540799C6.2851 0.892583 6.55 1.37929 6.62508 1.91109V1.91608C6.71019 2.55472 6.86703 3.18173 7.09261 3.78524C7.2427 4.18293 7.27552 4.61534 7.18716 5.03112C7.09881 5.44691 6.893 5.82861 6.59417 6.13091L6.09573 6.62935C6.93827 7.93591 8.05165 9.04624 9.36053 9.88518L9.85897 9.38673C10.1622 9.08779 10.5448 8.88198 10.9614 8.79365C11.378 8.70531 11.8111 8.73816 12.2096 8.88829C12.8143 9.11282 13.4423 9.26865 14.0818 9.35284H14.0888C14.6273 9.42881 15.1192 9.69954 15.4716 10.1138C15.8239 10.5281 16.0122 11.0571 16.0008 11.6008V13.768C16.0024 14.0768 15.9392 14.3824 15.8154 14.6652C15.6906 14.9486 15.5087 15.2031 15.281 15.4129C14.8696 15.7892 14.3323 15.998 13.7747 15.9981L13.7737 15.9971ZM13.7189 14.4519C13.8127 14.4601 13.9073 14.4486 13.9964 14.4182C14.0856 14.3878 14.1674 14.3392 14.2367 14.2754C14.3061 14.2116 14.3613 14.1341 14.399 14.0478C14.4367 13.9615 14.456 13.8682 14.4556 13.774V11.5918C14.4556 11.5852 14.4556 11.5786 14.4556 11.5719C14.4597 11.4057 14.4025 11.2438 14.295 11.1169C14.1875 10.9901 14.0371 10.9072 13.8724 10.8841C13.1189 10.7844 12.3789 10.6005 11.6663 10.3358C11.5435 10.2893 11.4099 10.2793 11.2815 10.3069C11.1545 10.3335 11.0379 10.3961 10.9456 10.4873L10.0245 11.4064C9.9048 11.5257 9.74935 11.6025 9.5819 11.625C9.41446 11.6475 9.24425 11.6145 9.09735 11.531C7.15832 10.4301 5.5521 8.82667 4.44788 6.88954C4.36406 6.74232 4.33095 6.57164 4.35364 6.40376C4.37634 6.23588 4.45358 6.08011 4.57349 5.96044L5.4966 5.03932C5.58628 4.9483 5.64788 4.83341 5.67405 4.70835C5.70105 4.58126 5.69102 4.4491 5.64514 4.32754C5.37921 3.61587 5.19428 2.8765 5.09386 2.12343C5.07068 1.96205 4.98953 1.81463 4.86557 1.70873C4.74095 1.60184 4.58216 1.54314 4.41797 1.54324H2.22483C2.13103 1.54354 2.03832 1.56327 1.95253 1.60119C1.86674 1.63911 1.78974 1.69439 1.72638 1.76356C1.66265 1.83228 1.61438 1.91386 1.58483 2.00281C1.55444 2.09116 1.54257 2.18481 1.54994 2.27795C1.77926 4.39602 2.50171 6.43089 3.65934 8.21938V8.22536C4.71789 9.88124 6.12625 11.2852 7.78545 12.3385H7.79143C9.57621 13.494 11.6057 14.2176 13.7189 14.4519Z" fill="#2D3748"/>
</svg>
