<svg width="16" height="16" viewBox="0 0 16 16" fill="none" xmlns="http://www.w3.org/2000/svg">
<path fill-rule="evenodd" clip-rule="evenodd" d="M5.78851 1.05388C5.95411 1.43358 5.78058 1.87565 5.40092 2.04126C4.42774 2.4658 3.57336 3.12231 2.91249 3.95339C2.25163 4.78447 1.8044 5.76481 1.60992 6.8087C1.41544 7.85259 1.47962 8.92823 1.79685 9.94158C2.11409 10.9549 2.67471 11.8751 3.42971 12.6217C4.18472 13.3683 5.1111 13.9185 6.12786 14.2243C7.14463 14.5301 8.22081 14.5821 9.26231 14.3757C10.3038 14.1694 11.2789 13.7111 12.1024 13.0408C12.9258 12.3705 13.5725 11.5086 13.986 10.5306C14.1473 10.149 14.5873 9.97049 14.9688 10.1318C15.3503 10.2931 15.5288 10.7332 15.3675 11.1147C14.8587 12.3185 14.0627 13.3792 13.0492 14.2042C12.0357 15.0292 10.8356 15.5933 9.55375 15.8473C8.27189 16.1012 6.94734 16.0372 5.69593 15.6609C4.44452 15.2845 3.30435 14.6073 2.37511 13.6884C1.44588 12.7696 0.755867 11.637 0.365422 10.3898C-0.0250238 9.14259 -0.104017 7.81871 0.135349 6.53392C0.374715 5.24912 0.925151 4.04254 1.73853 3.01966C2.55191 1.99679 3.60346 1.18877 4.80124 0.666261C5.18089 0.500643 5.62291 0.674188 5.78851 1.05388Z" fill="#2D3748"/>
<path fill-rule="evenodd" clip-rule="evenodd" d="M7.46966 0.219686C7.61031 0.0790236 7.80107 0 7.99997 0C10.1216 0 12.1563 0.842892 13.6565 2.34325C15.1567 3.84361 15.9995 5.87853 15.9995 8.00035C15.9995 8.19928 15.9204 8.39006 15.7798 8.53072C15.6391 8.67138 15.4484 8.75041 15.2495 8.75041H7.99997C7.58577 8.75041 7.25 8.4146 7.25 8.00035V0.750056C7.25 0.551129 7.32901 0.360349 7.46966 0.219686ZM8.74995 1.54351V7.2503H14.4561C14.288 5.80248 13.6366 4.4449 12.5958 3.40399C11.555 2.36308 10.1976 1.71166 8.74995 1.54351Z" fill="#2D3748"/>
</svg>
