<svg width="16" height="16" viewBox="0 0 16 16" fill="none" xmlns="http://www.w3.org/2000/svg">
<path fill-rule="evenodd" clip-rule="evenodd" d="M8.00101 1.5C6.60587 1.5 5.26958 2.04799 4.28566 3.02073C3.30202 3.99318 2.75101 5.31027 2.75101 6.68178C2.75101 8.6841 4.07167 10.6423 5.54251 12.1772C6.26207 12.9281 6.98424 13.5432 7.52742 13.9707C7.70804 14.1129 7.86818 14.2339 8.00101 14.3316C8.13383 14.2339 8.29398 14.1129 8.4746 13.9707C9.01777 13.5432 9.73994 12.9281 10.4595 12.1772C11.9303 10.6423 13.251 8.6841 13.251 6.68178C13.251 5.31027 12.7 3.99318 11.7164 3.02073C10.7324 2.04799 9.39614 1.5 8.00101 1.5ZM8.00101 15.25C7.5883 15.8762 7.58811 15.8761 7.5879 15.876L7.58588 15.8746L7.58129 15.8716L7.56572 15.8612C7.55253 15.8523 7.53381 15.8397 7.50992 15.8233C7.46214 15.7906 7.39365 15.7431 7.3074 15.6815C7.13497 15.5584 6.89111 15.3789 6.5996 15.1494C6.01777 14.6914 5.23994 14.0295 4.4595 13.2151C2.93035 11.6193 1.25101 9.29346 1.25101 6.68178C1.25101 4.90687 1.96427 3.20642 3.23108 1.95402C4.49759 0.701912 6.21355 0 8.00101 0C9.78847 0 11.5044 0.701912 12.7709 1.95402C14.0377 3.20642 14.751 4.90687 14.751 6.68178C14.751 9.29346 13.0717 11.6193 11.5425 13.2151C10.7621 14.0295 9.98424 14.6914 9.40242 15.1494C9.1109 15.3789 8.86705 15.5584 8.69462 15.6815C8.60837 15.7431 8.53987 15.7906 8.4921 15.8233C8.4682 15.8397 8.44948 15.8523 8.4363 15.8612L8.42072 15.8716L8.41613 15.8746L8.41465 15.8756C8.41444 15.8758 8.41372 15.8762 8.00101 15.25ZM8.00101 15.25L8.41372 15.8762C8.16332 16.0413 7.8383 16.041 7.5879 15.876L8.00101 15.25Z" fill="#2D3748"/>
<path fill-rule="evenodd" clip-rule="evenodd" d="M8.00102 5.45422C7.30238 5.45422 6.75071 6.01189 6.75071 6.68179C6.75071 7.35169 7.30238 7.90935 8.00102 7.90935C8.69965 7.90935 9.25133 7.35169 9.25133 6.68179C9.25133 6.01189 8.69965 5.45422 8.00102 5.45422ZM5.25071 6.68179C5.25071 5.16733 6.49017 3.95422 8.00102 3.95422C9.51186 3.95422 10.7513 5.16733 10.7513 6.68179C10.7513 8.19624 9.51186 9.40935 8.00102 9.40935C6.49017 9.40935 5.25071 8.19624 5.25071 6.68179Z" fill="#2D3748"/>
</svg>
