<svg width="16" height="16" viewBox="0 0 16 16" fill="none" xmlns="http://www.w3.org/2000/svg">
<path fill-rule="evenodd" clip-rule="evenodd" d="M0 8.0009C0 7.58669 0.335786 7.2509 0.75 7.2509H15.25C15.6642 7.2509 16 7.58669 16 8.0009C16 8.41511 15.6642 8.7509 15.25 8.7509H0.75C0.335786 8.7509 0 8.41511 0 8.0009Z" fill="#2D3748"/>
<path fill-rule="evenodd" clip-rule="evenodd" d="M8 0.000900236C8.41421 0.000900254 8.75 0.336687 8.75 0.7509L8.75 15.2509C8.75 15.6651 8.41421 16.0009 8 16.0009C7.58579 16.0009 7.25 15.6651 7.25 15.2509L7.25 0.7509C7.25 0.336687 7.58579 0.000900218 8 0.000900236Z" fill="#2D3748"/>
</svg>
