<svg width="16" height="16" viewBox="0 0 16 16" fill="none" xmlns="http://www.w3.org/2000/svg">
<path fill-rule="evenodd" clip-rule="evenodd" d="M1.60803 8.00143C1.67549 8.116 1.76072 8.2555 1.86327 8.4136C2.16492 8.87864 2.61155 9.49688 3.19101 10.1123C4.36338 11.3574 5.99166 12.5014 8 12.5014C10.0083 12.5014 11.6366 11.3574 12.809 10.1123C13.3885 9.49688 13.8351 8.87864 14.1367 8.4136C14.2393 8.25551 14.3245 8.11599 14.392 8.00143C14.3245 7.88687 14.2393 7.74736 14.1367 7.58927C13.8351 7.12423 13.3885 6.50599 12.809 5.89057C11.6366 4.64547 10.0083 3.50143 8 3.50143C5.99166 3.50143 4.36338 4.64547 3.19101 5.89057C2.61155 6.50599 2.16492 7.12423 1.86327 7.58927C1.76072 7.74736 1.67549 7.88687 1.60803 8.00143ZM15.25 8.00143C15.9202 7.66484 15.9201 7.66459 15.92 7.66432L15.9188 7.66204L15.9164 7.65732L15.9087 7.64226C15.9022 7.62976 15.8932 7.61239 15.8815 7.59048C15.8582 7.54666 15.8246 7.48461 15.7807 7.40693C15.693 7.25166 15.5641 7.03335 15.3952 6.77297C15.0583 6.25364 14.5574 5.55938 13.9011 4.86229C12.6018 3.4824 10.6051 2.00143 8 2.00143C5.39493 2.00143 3.39821 3.4824 2.09893 4.86229C1.44256 5.55938 0.941706 6.25364 0.604834 6.77297C0.435934 7.03335 0.307032 7.25166 0.219311 7.40693C0.175422 7.48461 0.141757 7.54666 0.118468 7.59048C0.10682 7.61239 0.0977605 7.62976 0.0913068 7.64226L0.0835804 7.65732L0.0811858 7.66204L0.0803562 7.66368C0.0802204 7.66395 0.0797722 7.66484 0.75 8.00143L0.0797722 7.66484C-0.0265907 7.87663 -0.0265907 8.12624 0.0797722 8.33803L0.75 8.00143C0.0797722 8.33803 0.0796364 8.33776 0.0797722 8.33803L0.0803562 8.33919L0.0811858 8.34083L0.0835804 8.34555L0.0913068 8.36061C0.0977605 8.37311 0.10682 8.39047 0.118468 8.41239C0.141757 8.45621 0.175422 8.51826 0.219311 8.59594C0.307032 8.75121 0.435934 8.96952 0.604834 9.2299C0.941706 9.74923 1.44256 10.4435 2.09893 11.1406C3.39821 12.5205 5.39493 14.0014 8 14.0014C10.6051 14.0014 12.6018 12.5205 13.9011 11.1406C14.5574 10.4435 15.0583 9.74923 15.3952 9.2299C15.5641 8.96952 15.693 8.75121 15.7807 8.59594C15.8246 8.51826 15.8582 8.45621 15.8815 8.41239C15.8932 8.39047 15.9022 8.37311 15.9087 8.36061L15.9164 8.34555L15.9188 8.34083L15.9196 8.33919C15.9198 8.33892 15.9202 8.33803 15.25 8.00143ZM15.25 8.00143L15.9202 8.33803C16.0266 8.12624 16.0263 7.87611 15.92 7.66432L15.25 8.00143Z" fill="#2D3748"/>
<path fill-rule="evenodd" clip-rule="evenodd" d="M8.00004 6.78299C7.31902 6.78299 6.7724 7.33187 6.7724 8.00224C6.7724 8.67261 7.31902 9.22149 8.00004 9.22149C8.68105 9.22149 9.22768 8.67261 9.22768 8.00224C9.22768 7.33187 8.68105 6.78299 8.00004 6.78299ZM5.2724 8.00224C5.2724 6.49744 6.49661 5.28299 8.00004 5.28299C9.50346 5.28299 10.7277 6.49744 10.7277 8.00224C10.7277 9.50704 9.50346 10.7215 8.00004 10.7215C6.49661 10.7215 5.2724 9.50704 5.2724 8.00224Z" fill="#2D3748"/>
</svg>
