<svg width="16" height="16" viewBox="0 0 16 16" fill="none" xmlns="http://www.w3.org/2000/svg">
<path fill-rule="evenodd" clip-rule="evenodd" d="M1.9181 0.635421C2.34185 0.225825 2.91132 0 3.50001 0H8.74612C8.94053 0 9.12734 0.075488 9.26717 0.210549L14.521 5.28521C14.6674 5.42654 14.75 5.62123 14.75 5.82466V13.8001C14.75 14.3919 14.5066 14.9541 14.0819 15.3646C13.6582 15.7742 13.0887 16 12.5 16H3.50001C2.91132 16 2.34185 15.7742 1.9181 15.3646C1.49349 14.9541 1.25 14.3919 1.25 13.8001V2.19991C1.25 1.60806 1.49349 1.04585 1.9181 0.635421ZM3.50001 1.5C3.29305 1.5 3.09946 1.57971 2.9606 1.71394C2.8226 1.84733 2.75 2.02268 2.75 2.19991V13.8001C2.75 13.9773 2.8226 14.1527 2.9606 14.2861C3.09946 14.4203 3.29305 14.5 3.50001 14.5H12.5C12.707 14.5 12.9006 14.4203 13.0394 14.2861C13.1774 14.1527 13.25 13.9774 13.25 13.8001V6.14297L8.44306 1.5H3.50001Z" fill="#2D3748"/>
<path fill-rule="evenodd" clip-rule="evenodd" d="M8.74609 0C9.16031 0 9.49609 0.335786 9.49609 0.75V5.07091H13.9922C14.4064 5.07091 14.7422 5.40669 14.7422 5.82091C14.7422 6.23512 14.4064 6.57091 13.9922 6.57091H8.74609C8.33188 6.57091 7.99609 6.23512 7.99609 5.82091V0.75C7.99609 0.335786 8.33188 0 8.74609 0Z" fill="#2D3748"/>
</svg>
