<svg width="16" height="16" viewBox="0 0 16 16" fill="none" xmlns="http://www.w3.org/2000/svg">
<path fill-rule="evenodd" clip-rule="evenodd" d="M0 0.75C0 0.335786 0.335786 0 0.75 0H15.25C15.6642 0 16 0.335786 16 0.75V3.46875C16 3.88296 15.6642 4.21875 15.25 4.21875C14.8358 4.21875 14.5 3.88296 14.5 3.46875V1.5H1.5V3.46875C1.5 3.88296 1.16421 4.21875 0.75 4.21875C0.335786 4.21875 0 3.88296 0 3.46875V0.75Z" fill="#2D3748"/>
<path fill-rule="evenodd" clip-rule="evenodd" d="M4.53125 15.25C4.53125 14.8358 4.86704 14.5 5.28125 14.5H10.7188C11.133 14.5 11.4688 14.8358 11.4688 15.25C11.4688 15.6642 11.133 16 10.7188 16H5.28125C4.86704 16 4.53125 15.6642 4.53125 15.25Z" fill="#2D3748"/>
<path fill-rule="evenodd" clip-rule="evenodd" d="M8 0C8.41421 0 8.75 0.335786 8.75 0.75V15.25C8.75 15.6642 8.41421 16 8 16C7.58579 16 7.25 15.6642 7.25 15.25V0.75C7.25 0.335786 7.58579 0 8 0Z" fill="#2D3748"/>
</svg>
