<svg width="16" height="16" viewBox="0 0 16 16" fill="none" xmlns="http://www.w3.org/2000/svg">
<path fill-rule="evenodd" clip-rule="evenodd" d="M3.24219 1.5C2.7916 1.5 2.40625 1.87435 2.40625 2.36111V13.6389C2.40625 14.1256 2.7916 14.5 3.24219 14.5H12.7578C13.2084 14.5 13.5938 14.1256 13.5938 13.6389V2.36111C13.5938 1.87435 13.2084 1.5 12.7578 1.5H3.24219ZM0.90625 2.36111C0.90625 1.06828 1.94099 0 3.24219 0H12.7578C14.059 0 15.0938 1.06828 15.0938 2.36111V13.6389C15.0938 14.9317 14.059 16 12.7578 16H3.24219C1.94099 16 0.90625 14.9317 0.90625 13.6389V2.36111Z" fill="#2D3748"/>
<path fill-rule="evenodd" clip-rule="evenodd" d="M6.41412 8.41797H9.59239C9.90258 8.42061 10.2089 8.48534 10.4938 8.60808C10.7787 8.73081 11.0362 8.90901 11.2519 9.13191C11.4677 9.35479 11.6375 9.61802 11.7522 9.90627C11.8665 10.1934 11.9241 10.5002 11.9219 10.8093V12.0285C11.9219 12.4427 11.5861 12.7785 11.1719 12.7785C10.7577 12.7785 10.4219 12.4427 10.4219 12.0285V10.8002C10.4229 10.6837 10.4013 10.5684 10.3585 10.461C10.3158 10.3536 10.2529 10.2566 10.1741 10.1751C10.0953 10.0938 10.0022 10.0296 9.90029 9.98567C9.79926 9.94214 9.69127 9.91925 9.58228 9.91797H6.41783C6.30885 9.91925 6.20085 9.94214 6.09982 9.98567C5.99794 10.0296 5.90478 10.0938 5.826 10.1751C5.74719 10.2566 5.68433 10.3536 5.64159 10.461C5.59883 10.5684 5.57719 10.6837 5.57816 10.8002L5.57821 10.8065L5.57818 12.0285C5.57818 12.4427 5.2424 12.7785 4.82818 12.7785C4.41397 12.7785 4.07818 12.4427 4.07818 12.0285V10.8093C4.07605 10.5002 4.13362 10.1934 4.24793 9.90627C4.36266 9.61802 4.53246 9.35479 4.74819 9.13191C4.96394 8.90901 5.22144 8.73081 5.50631 8.60808C5.7912 8.48534 6.09754 8.42064 6.40773 8.418L6.41412 8.41797Z" fill="#2D3748"/>
<path fill-rule="evenodd" clip-rule="evenodd" d="M7.90929 4.72266C7.38907 4.72266 6.94727 5.15435 6.94727 5.71185C6.94727 6.26935 7.38907 6.70105 7.90929 6.70105C8.4295 6.70105 8.8713 6.26935 8.8713 5.71185C8.8713 5.15435 8.4295 4.72266 7.90929 4.72266ZM5.44727 5.71185C5.44727 4.34829 6.53846 3.22266 7.90929 3.22266C9.28011 3.22266 10.3713 4.34829 10.3713 5.71185C10.3713 7.07542 9.28011 8.20105 7.90929 8.20105C6.53846 8.20105 5.44727 7.07542 5.44727 5.71185Z" fill="#2D3748"/>
</svg>
