<svg width="16" height="16" viewBox="0 0 16 16" fill="none" xmlns="http://www.w3.org/2000/svg">
<path fill-rule="evenodd" clip-rule="evenodd" d="M7.19421 1.50092C4.04939 1.50092 1.5 4.0503 1.5 7.19513C1.5 10.34 4.04939 12.8893 7.19421 12.8893C10.339 12.8893 12.8884 10.34 12.8884 7.19513C12.8884 4.0503 10.339 1.50092 7.19421 1.50092ZM0 7.19513C0 3.22187 3.22096 0.000915527 7.19421 0.000915527C11.1675 0.000915527 14.3884 3.22187 14.3884 7.19513C14.3884 11.1684 11.1675 14.3893 7.19421 14.3893C3.22096 14.3893 0 11.1684 0 7.19513Z" fill="#2D3748"/>
<path fill-rule="evenodd" clip-rule="evenodd" d="M11.2159 11.2157C11.5087 10.9228 11.9836 10.9228 12.2765 11.2157L15.7803 14.7196C16.0732 15.0124 16.0732 15.4873 15.7803 15.7802C15.4874 16.0731 15.0126 16.0731 14.7197 15.7802L11.2159 12.2764C10.923 11.9835 10.923 11.5086 11.2159 11.2157Z" fill="#2D3748"/>
</svg>
