<svg width="16" height="16" viewBox="0 0 16 16" fill="none" xmlns="http://www.w3.org/2000/svg">
<path fill-rule="evenodd" clip-rule="evenodd" d="M2.72656 8.69434C3.14078 8.69434 3.47656 9.03012 3.47656 9.44434V14.4999C3.47656 14.9141 3.14078 15.2499 2.72656 15.2499C2.31235 15.2499 1.97656 14.9141 1.97656 14.4999V9.44434C1.97656 9.03012 2.31235 8.69434 2.72656 8.69434Z" fill="#2D3748"/>
<path fill-rule="evenodd" clip-rule="evenodd" d="M2.72656 0.75C3.14078 0.75 3.47656 1.08579 3.47656 1.5V6.55555C3.47656 6.96977 3.14078 7.30555 2.72656 7.30555C2.31235 7.30555 1.97656 6.96977 1.97656 6.55555V1.5C1.97656 1.08579 2.31235 0.75 2.72656 0.75Z" fill="#2D3748"/>
<path fill-rule="evenodd" clip-rule="evenodd" d="M8 7.25C8.41421 7.25 8.75 7.58579 8.75 8V14.5C8.75 14.9142 8.41421 15.25 8 15.25C7.58579 15.25 7.25 14.9142 7.25 14.5V8C7.25 7.58579 7.58579 7.25 8 7.25Z" fill="#2D3748"/>
<path fill-rule="evenodd" clip-rule="evenodd" d="M8 0.75C8.41421 0.75 8.75 1.08579 8.75 1.5V5.11111C8.75 5.52533 8.41421 5.86111 8 5.86111C7.58579 5.86111 7.25 5.52533 7.25 5.11111V1.5C7.25 1.08579 7.58579 0.75 8 0.75Z" fill="#2D3748"/>
<path fill-rule="evenodd" clip-rule="evenodd" d="M13.2734 10.1387C13.6877 10.1387 14.0234 10.4745 14.0234 10.8887V14.4998C14.0234 14.914 13.6877 15.2498 13.2734 15.2498C12.8592 15.2498 12.5234 14.914 12.5234 14.4998V10.8887C12.5234 10.4745 12.8592 10.1387 13.2734 10.1387Z" fill="#2D3748"/>
<path fill-rule="evenodd" clip-rule="evenodd" d="M13.2734 0.75C13.6877 0.75 14.0234 1.08579 14.0234 1.5V8C14.0234 8.41421 13.6877 8.75 13.2734 8.75C12.8592 8.75 12.5234 8.41421 12.5234 8V1.5C12.5234 1.08579 12.8592 0.75 13.2734 0.75Z" fill="#2D3748"/>
<path fill-rule="evenodd" clip-rule="evenodd" d="M0 9.44434C0 9.03012 0.335786 8.69434 0.75 8.69434H4.70455C5.11876 8.69434 5.45455 9.03012 5.45455 9.44434C5.45455 9.85855 5.11876 10.1943 4.70455 10.1943H0.75C0.335786 10.1943 0 9.85855 0 9.44434Z" fill="#2D3748"/>
<path fill-rule="evenodd" clip-rule="evenodd" d="M5.27344 5.11133C5.27344 4.69711 5.60922 4.36133 6.02344 4.36133H9.97798C10.3922 4.36133 10.728 4.69711 10.728 5.11133C10.728 5.52554 10.3922 5.86133 9.97798 5.86133H6.02344C5.60922 5.86133 5.27344 5.52554 5.27344 5.11133Z" fill="#2D3748"/>
<path fill-rule="evenodd" clip-rule="evenodd" d="M10.5449 10.8887C10.5449 10.4745 10.8807 10.1387 11.2949 10.1387H15.2495C15.6637 10.1387 15.9995 10.4745 15.9995 10.8887C15.9995 11.3029 15.6637 11.6387 15.2495 11.6387H11.2949C10.8807 11.6387 10.5449 11.3029 10.5449 10.8887Z" fill="#2D3748"/>
</svg>
