<svg width="16" height="16" viewBox="0 0 16 16" fill="none" xmlns="http://www.w3.org/2000/svg">
<path fill-rule="evenodd" clip-rule="evenodd" d="M8.00044 0.251434C8.28751 0.251454 8.54938 0.415332 8.6749 0.673505L10.742 4.92521L15.3601 5.61067C15.6411 5.65237 15.8744 5.8492 15.9628 6.11912C16.0512 6.38905 15.9795 6.68575 15.7776 6.88556L12.4328 10.1966L13.2202 14.877C13.2676 15.159 13.1506 15.4434 12.9185 15.6103C12.6864 15.7772 12.3795 15.7977 12.1273 15.663L7.99965 13.4592L3.87275 15.663C3.62045 15.7977 3.31348 15.7772 3.08134 15.6102C2.84919 15.4431 2.73229 15.1585 2.77995 14.8765L3.57075 10.1966L0.222656 6.88584C0.0206451 6.68608 -0.0511558 6.38933 0.0371925 6.11931C0.125541 5.8493 0.35887 5.65238 0.639891 5.61067L5.2581 4.9252L7.32592 0.673414C7.45148 0.415258 7.71337 0.251415 8.00044 0.251434ZM8.00027 2.7165L6.43401 5.93701C6.32573 6.15965 6.11455 6.31451 5.86966 6.35086L2.34414 6.87415L4.90255 9.40403C5.07625 9.5758 5.15542 9.82141 5.11471 10.0623L4.51346 13.6204L7.64633 11.9474C7.86709 11.8295 8.1321 11.8295 8.35287 11.9474L11.4878 13.6212L10.889 10.0617C10.8486 9.82117 10.9276 9.57594 11.101 9.40431L13.6568 6.87429L10.1304 6.35086C9.88543 6.31451 9.67423 6.15961 9.56596 5.93692L8.00027 2.7165Z" fill="#2D3748"/>
</svg>
