<svg width="16" height="16" viewBox="0 0 16 16" fill="none" xmlns="http://www.w3.org/2000/svg">
<path fill-rule="evenodd" clip-rule="evenodd" d="M14.6713 0.00317044C15.0236 -0.0291881 15.3506 0.189011 15.4559 0.526727C15.9865 2.22808 16.1308 4.02687 15.8784 5.79134C15.6259 7.55582 14.9829 9.24144 13.9965 10.7247C13.0101 12.2079 11.7051 13.4513 10.1771 14.3635C8.64914 15.2757 6.93687 15.8337 5.16576 15.9964C4.81349 16.0287 4.4865 15.8105 4.38117 15.4728C3.85056 13.7714 3.70623 11.9727 3.95873 10.2082C4.21122 8.4437 4.85417 6.75809 5.84059 5.27485C6.82701 3.7916 8.13195 2.54826 9.65994 1.63603C11.1879 0.723808 12.9002 0.165857 14.6713 0.00317044ZM14.1914 1.57225C12.864 1.77481 11.5861 2.23311 10.4289 2.92397C9.09325 3.72134 7.95226 4.80835 7.0896 6.1055C6.22694 7.40265 5.66449 8.87704 5.4436 10.4207C5.25213 11.7587 5.32151 13.1193 5.64569 14.4273C6.97307 14.2247 8.25102 13.7664 9.40823 13.0756C10.7438 12.2782 11.8848 11.1912 12.7475 9.89403C13.6101 8.59688 14.1726 7.12248 14.3935 5.57886C14.5849 4.24082 14.5156 2.88024 14.1914 1.57225Z" fill="#2D3748"/>
<path fill-rule="evenodd" clip-rule="evenodd" d="M12.3485 4.34725C12.6934 4.57662 12.7871 5.04217 12.5577 5.38708L5.72225 15.6655C5.49287 16.0104 5.02733 16.104 4.68242 15.8746C4.33751 15.6453 4.24385 15.1797 4.47323 14.8348L11.3087 4.55644C11.538 4.21154 12.0036 4.11788 12.3485 4.34725Z" fill="#2D3748"/>
<path fill-rule="evenodd" clip-rule="evenodd" d="M0.348231 6.54596C0.453709 6.20825 0.780836 5.99019 1.13313 6.02274C2.8007 6.17682 4.37128 6.87606 5.60334 8.01247C5.90781 8.29331 5.92697 8.7678 5.64614 9.07227C5.3653 9.37674 4.89081 9.3959 4.58634 9.11507C3.7523 8.34577 2.72564 7.82605 1.62239 7.60729C1.35902 8.90839 1.52224 10.2665 2.09732 11.4748C2.76362 12.8748 3.93321 13.9694 5.37057 14.5395C5.7556 14.6922 5.94394 15.1282 5.79122 15.5132C5.63851 15.8982 5.20258 16.0866 4.81754 15.9338C3.0272 15.2237 1.57171 13.8608 0.742907 12.1195C-0.0858654 10.3782 -0.22682 8.38706 0.348231 6.54596Z" fill="#2D3748"/>
</svg>
