<svg width="16" height="16" viewBox="0 0 16 16" fill="none" xmlns="http://www.w3.org/2000/svg">
<path fill-rule="evenodd" clip-rule="evenodd" d="M0 0.750196C0 0.335874 0.335786 0 0.75 0H8.31328C8.51219 0 8.70295 0.0790383 8.84361 0.219727L15.342 6.71986C15.7635 7.14391 16 7.71753 16 8.31545C16 8.91337 15.7635 9.48699 15.342 9.91104L14.8102 9.38223L15.3405 9.91262L9.91789 15.3366C9.70775 15.547 9.4582 15.714 9.18352 15.8279C8.90884 15.9418 8.6144 16.0004 8.31706 16.0004C8.01971 16.0004 7.72528 15.9418 7.4506 15.8279C7.17606 15.714 6.92664 15.5472 6.71657 15.337C6.71646 15.3368 6.71668 15.3371 6.71657 15.337L0.219979 8.84623C0.0791376 8.70551 0 8.51457 0 8.31545V0.750196ZM14.2789 8.8526C14.2787 8.85282 14.2791 8.85238 14.2789 8.8526C14.4205 8.70973 14.5 8.51667 14.5 8.31545C14.5 8.11423 14.4205 7.92117 14.2789 7.77831C14.2787 7.77808 14.2791 7.77853 14.2789 7.77831L8.00262 1.50039H1.5V8.00445L7.77688 14.2757C7.84771 14.3466 7.93242 14.4035 8.02501 14.4419C8.11759 14.4802 8.21683 14.5 8.31706 14.5C8.41729 14.5 8.51653 14.4802 8.60911 14.4419C8.70169 14.4035 8.78581 14.3472 8.85664 14.2763L14.2789 8.8526Z" fill="#2D3748"/>
<path fill-rule="evenodd" clip-rule="evenodd" d="M3.78125 4.53242C3.78125 4.1181 4.11704 3.78223 4.53125 3.78223H4.5396C4.95381 3.78223 5.2896 4.1181 5.2896 4.53242C5.2896 4.94674 4.95381 5.28262 4.5396 5.28262H4.53125C4.11704 5.28262 3.78125 4.94674 3.78125 4.53242Z" fill="#2D3748"/>
</svg>
