<svg width="16" height="16" viewBox="0 0 16 16" fill="none" xmlns="http://www.w3.org/2000/svg">
<path fill-rule="evenodd" clip-rule="evenodd" d="M3.8751 1.44998H5.25006C5.66428 1.44998 6.00006 1.78577 6.00006 2.19998C6.00006 2.6142 5.66428 2.94998 5.25006 2.94998H3.8818C3.71842 2.95362 3.55895 3.02291 3.43913 3.14927C3.31761 3.27743 3.24759 3.45366 3.25006 3.64002L3.2502 3.64998L3.25013 13.81C3.24765 13.9963 3.31761 14.1726 3.43913 14.3007C3.55894 14.4271 3.7184 14.4964 3.88178 14.5H12.1182C12.2816 14.4964 12.4411 14.4271 12.5609 14.3007C12.6824 14.1726 12.7524 13.9963 12.7499 13.81L12.7498 13.8L12.7499 3.64002C12.7523 3.45366 12.6824 3.27743 12.5609 3.14927C12.4411 3.02291 12.2816 2.95362 12.1182 2.94998H10.7499C10.3357 2.94998 9.99994 2.6142 9.99994 2.19998C9.99994 1.78577 10.3357 1.44998 10.7499 1.44998H12.1361C12.7108 1.45855 13.2546 1.70088 13.6493 2.11715C14.0422 2.53145 14.256 3.08443 14.2499 3.65449V13.7955C14.256 14.3656 14.0422 14.9185 13.6493 15.3328C13.2546 15.7491 12.7108 15.9913 12.1361 15.9999L12.1249 16.0001L3.86391 16C3.28922 15.9914 2.7454 15.7491 2.35068 15.3328C1.95782 14.9185 1.74397 14.3656 1.75013 13.7955V3.65445C1.74397 3.08441 1.95782 2.53144 2.35068 2.11715C2.7454 1.70088 3.28922 1.45864 3.86391 1.45007L3.8751 1.44998Z" fill="#2D3748"/>
<path fill-rule="evenodd" clip-rule="evenodd" d="M6.66437 1.5C6.26927 1.5 6.00012 1.80052 6.00012 2.10938C6.00012 2.41823 6.26927 2.71875 6.66437 2.71875H9.33574C9.73085 2.71875 9.99999 2.41823 9.99999 2.10938C9.99999 1.80053 9.73085 1.5 9.33574 1.5H6.66437ZM4.50012 2.10938C4.50012 0.916703 5.49734 0 6.66437 0H9.33574C10.5028 0 11.5 0.916703 11.5 2.10938C11.5 3.30205 10.5028 4.21875 9.33574 4.21875H6.66437C5.49734 4.21875 4.50012 3.30205 4.50012 2.10938Z" fill="#2D3748"/>
</svg>
