<svg width="16" height="16" viewBox="0 0 16 16" fill="none" xmlns="http://www.w3.org/2000/svg">
<path fill-rule="evenodd" clip-rule="evenodd" d="M3.91602 15.25C3.91602 15.6642 3.58023 16 3.16602 16H0.749349C0.335135 16 -0.000650883 15.6642 -0.000650883 15.25C-0.000650883 14.8358 0.335135 14.5 0.749349 14.5H3.16602C3.58023 14.5 3.91602 14.8358 3.91602 15.25Z" fill="#2D3748"/>
<path fill-rule="evenodd" clip-rule="evenodd" d="M16 15.25C16 15.6642 15.6642 16 15.25 16H12.8333C12.4191 16 12.0833 15.6642 12.0833 15.25C12.0833 14.8358 12.4191 14.5 12.8333 14.5H15.25C15.6642 14.5 16 14.8358 16 15.25Z" fill="#2D3748"/>
<path fill-rule="evenodd" clip-rule="evenodd" d="M3.97852 9.61133C3.97852 9.19711 4.3143 8.86133 4.72852 8.86133H11.8778C12.292 8.86133 12.6278 9.19711 12.6278 9.61133C12.6278 10.0255 12.292 10.3613 11.8778 10.3613H4.72852C4.3143 10.3613 3.97852 10.0255 3.97852 9.61133Z" fill="#2D3748"/>
<path fill-rule="evenodd" clip-rule="evenodd" d="M8.34648 0.0613288C8.72693 0.225133 8.90255 0.666337 8.73875 1.04679L2.4957 15.5468C2.33189 15.9272 1.89069 16.1029 1.51024 15.9391C1.12979 15.7753 0.954165 15.334 1.11797 14.9536L7.36103 0.453598C7.52483 0.0731495 7.96603 -0.102475 8.34648 0.0613288Z" fill="#2D3748"/>
<path fill-rule="evenodd" clip-rule="evenodd" d="M7.75243 0.0613288C8.13287 -0.102475 8.57408 0.0731495 8.73788 0.453598L14.9809 14.9536C15.1447 15.334 14.9691 15.7753 14.5887 15.9391C14.2082 16.1029 13.767 15.9272 13.6032 15.5468L7.36016 1.04679C7.19635 0.666337 7.37198 0.225133 7.75243 0.0613288Z" fill="#2D3748"/>
</svg>
