<svg width="16" height="16" viewBox="0 0 16 16" fill="none" xmlns="http://www.w3.org/2000/svg">
<path fill-rule="evenodd" clip-rule="evenodd" d="M7.99824 3.47871C7.59044 3.47775 7.18391 3.52421 6.78684 3.61715C6.38353 3.71156 5.98005 3.46114 5.88565 3.05783C5.79124 2.65451 6.04166 2.25103 6.44497 2.15663C6.95497 2.03725 7.47711 1.97755 8.00088 1.97871C10.6069 1.97904 12.6036 3.46688 13.9023 4.85212C14.5585 5.55211 15.0592 6.24924 15.396 6.77068C15.5649 7.03212 15.6937 7.2513 15.7814 7.40718C15.8253 7.48516 15.8589 7.54745 15.8822 7.59143C15.8938 7.61342 15.9029 7.63085 15.9093 7.64339L15.917 7.65849L15.9194 7.66322L15.9202 7.66486C15.9204 7.66513 15.9208 7.66603 15.25 8.00144L14.5886 7.64788C14.5252 7.76649 14.4597 7.88393 14.3922 8.00015C14.3246 7.88475 14.239 7.74403 14.136 7.58447C13.8342 7.11727 13.3875 6.49622 12.808 5.87803C11.6352 4.62706 10.0072 3.47871 8 3.47871L7.99824 3.47871ZM14.3922 8.00015C14.06 8.57217 13.6787 9.11453 13.2525 9.62105C12.9858 9.93799 13.0265 10.4111 13.3435 10.6778C13.6604 10.9445 14.1335 10.9038 14.4002 10.5868C14.9803 9.8975 15.4867 9.1495 15.9114 8.35499C16.0261 8.14045 16.0296 7.88361 15.9208 7.66603L15.25 8.00144C14.5792 8.33685 14.5793 8.33706 14.5794 8.33724L14.5753 8.32923L14.5564 8.29301C14.5388 8.25975 14.5113 8.20876 14.474 8.14257C14.4506 8.10086 14.4233 8.05318 14.3922 8.00015ZM4.68108 3.63126C4.93247 3.96047 4.86938 4.43113 4.54018 4.68252C3.35426 5.5881 2.35853 6.71667 1.60821 8.00342C1.67578 8.11869 1.76121 8.25917 1.86405 8.41841C2.16578 8.8856 2.61249 9.50666 3.19204 10.1248C4.36363 11.3745 5.98951 12.5218 7.99389 12.5242C9.2481 12.5023 10.4626 12.0805 11.4603 11.32C11.7898 11.0689 12.2604 11.1323 12.5115 11.4618C12.7626 11.7912 12.6991 12.2618 12.3697 12.5129C11.1157 13.4688 9.58878 13.9983 8.01226 14.0241L8 14.0243C5.39355 14.0243 3.39654 12.5362 2.09773 11.1508C1.44149 10.4508 0.940754 9.75363 0.60399 9.23219C0.435143 8.97075 0.30629 8.75157 0.218611 8.59569C0.174743 8.51771 0.141097 8.45542 0.117826 8.41144C0.106188 8.38945 0.0971365 8.37202 0.090691 8.35948L0.0829766 8.34438L0.0805878 8.33965L0.079761 8.33801C0.079626 8.33774 0.0791797 8.33685 0.75 8.00144L0.0791797 8.33685C-0.029804 8.11888 -0.0260921 7.86155 0.0891333 7.64682C0.959535 6.02474 2.16676 4.60756 3.62982 3.49035C3.95903 3.23897 4.4297 3.30205 4.68108 3.63126ZM7.15144 6.09287C7.43381 6.39592 7.41706 6.87049 7.11402 7.15287C6.99344 7.26523 6.89673 7.40072 6.82965 7.55126C6.76257 7.70181 6.7265 7.86432 6.7236 8.02911C6.72069 8.19389 6.751 8.35758 6.81273 8.51039C6.87445 8.66321 6.96633 8.80203 7.08287 8.91857C7.19941 9.03511 7.33822 9.12698 7.49104 9.18871C7.64386 9.25043 7.80754 9.28075 7.97233 9.27784C8.13711 9.27493 8.29963 9.23886 8.45017 9.17178C8.60072 9.10471 8.73621 9.00799 8.84857 8.88742C9.13094 8.58437 9.60552 8.56762 9.90856 8.85C10.2116 9.13238 10.2284 9.60696 9.94598 9.91C9.6963 10.178 9.39521 10.3929 9.06067 10.5419C8.72612 10.691 8.36498 10.7711 7.99879 10.7776C7.6326 10.7841 7.26886 10.7167 6.92926 10.5795C6.58967 10.4424 6.28118 10.2382 6.02221 9.97923C5.76323 9.72025 5.55907 9.41177 5.4219 9.07217C5.28473 8.73258 5.21737 8.36884 5.22383 8.00265C5.23029 7.63645 5.31044 7.27531 5.45951 6.94077C5.60857 6.60623 5.82348 6.30514 6.09144 6.05545C6.39448 5.77308 6.86906 5.78983 7.15144 6.09287Z" fill="#2D3748"/>
<path fill-rule="evenodd" clip-rule="evenodd" d="M0.21967 0.221104C0.512563 -0.071789 0.987437 -0.071789 1.28033 0.221104L15.7803 14.7211C16.0732 15.014 16.0732 15.4889 15.7803 15.7818C15.4874 16.0747 15.0126 16.0747 14.7197 15.7818L0.21967 1.28176C-0.0732233 0.988871 -0.0732233 0.513997 0.21967 0.221104Z" fill="#2D3748"/>
</svg>
