<svg width="16" height="16" viewBox="0 0 16 16" fill="none" xmlns="http://www.w3.org/2000/svg">
<path fill-rule="evenodd" clip-rule="evenodd" d="M6.94156 1.0367C7.26301 0.849406 7.62763 0.75 8 0.75C8.37237 0.75 8.73699 0.849406 9.05844 1.0367C9.37968 1.22387 9.64587 1.49177 9.83363 1.81212L9.83571 1.81565L15.719 11.9801C15.9028 12.3094 15.999 12.6809 16 13.0578C16.001 13.4347 15.9067 13.8066 15.7248 14.1369C15.5428 14.4673 15.2787 14.7458 14.9561 14.9423C14.6333 15.1388 14.2643 15.2456 13.886 15.25L13.8774 15.25L2.11404 15.25C1.73574 15.2457 1.36673 15.1388 1.04393 14.9423C0.72133 14.7458 0.457153 14.4673 0.275169 14.1369C0.0932649 13.8066 -0.00101153 13.4347 8.18478e-06 13.0578C0.00102796 12.6809 0.097317 12.3095 0.281037 11.9802L0.286794 11.9699L6.1643 1.81566L6.8134 2.19136L6.16637 1.81212C6.35413 1.49177 6.62032 1.22387 6.94156 1.0367ZM7.46133 2.56913C7.46104 2.56963 7.46075 2.57013 7.46046 2.57062L1.58858 12.7153C1.53144 12.8194 1.50034 12.9389 1.5 13.0618C1.49967 13.1865 1.53096 13.3078 1.58906 13.4132C1.64708 13.5186 1.72897 13.6032 1.82409 13.6611C1.91798 13.7183 2.02251 13.7482 2.12769 13.75H13.8723C13.9775 13.7482 14.082 13.7183 14.1759 13.6611C14.271 13.6032 14.3529 13.5186 14.4109 13.4132C14.469 13.3078 14.5003 13.1865 14.5 13.0618C14.4997 12.9389 14.4686 12.8194 14.4114 12.7153L8.53954 2.57062C8.53926 2.57014 8.53898 2.56966 8.5387 2.56918C8.47912 2.4681 8.39728 2.38751 8.30329 2.33275C8.20904 2.27783 8.10468 2.25 8 2.25C7.89532 2.25 7.79096 2.27783 7.69671 2.33275C7.60273 2.38751 7.5209 2.46807 7.46133 2.56913Z" fill="#2D3748"/>
<path fill-rule="evenodd" clip-rule="evenodd" d="M8 5.13281C8.41421 5.13281 8.75 5.4686 8.75 5.88281V8.75531C8.75 9.16952 8.41421 9.50531 8 9.50531C7.58579 9.50531 7.25 9.16952 7.25 8.75531V5.88281C7.25 5.4686 7.58579 5.13281 8 5.13281Z" fill="#2D3748"/>
<path fill-rule="evenodd" clip-rule="evenodd" d="M7.25 11.6279C7.25 11.2137 7.58579 10.8779 8 10.8779H8.00667C8.42088 10.8779 8.75667 11.2137 8.75667 11.6279C8.75667 12.0421 8.42088 12.3779 8.00667 12.3779H8C7.58579 12.3779 7.25 12.0421 7.25 11.6279Z" fill="#2D3748"/>
</svg>
