<svg width="16" height="16" viewBox="0 0 16 16" fill="none" xmlns="http://www.w3.org/2000/svg">
<path fill-rule="evenodd" clip-rule="evenodd" d="M8 1.5C4.41015 1.5 1.5 4.41015 1.5 8C1.5 11.5899 4.41015 14.5 8 14.5C11.5899 14.5 14.5 11.5899 14.5 8C14.5 4.41015 11.5899 1.5 8 1.5ZM0 8C0 3.58172 3.58172 0 8 0C12.4183 0 16 3.58172 16 8C16 12.4183 12.4183 16 8 16C3.58172 16 0 12.4183 0 8Z" fill="#2D3748"/>
<path fill-rule="evenodd" clip-rule="evenodd" d="M0 8C0 7.58579 0.335786 7.25 0.75 7.25H15.25C15.6642 7.25 16 7.58579 16 8C16 8.41421 15.6642 8.75 15.25 8.75H0.75C0.335786 8.75 0 8.41421 0 8Z" fill="#2D3748"/>
<path fill-rule="evenodd" clip-rule="evenodd" d="M5.84978 7.99996C5.89923 10.2128 6.65685 12.3436 7.99961 14.0848C9.34237 12.3436 10.1 10.2128 10.1494 7.99996C10.1 5.7871 9.34237 3.65628 7.99961 1.91514C6.65685 3.65628 5.89923 5.7871 5.84978 7.99996ZM7.99961 0.749958L7.44585 0.244141C5.50981 2.36368 4.40956 5.1143 4.34977 7.98434C4.34956 7.99475 4.34956 8.00517 4.34977 8.01558C4.40956 10.8856 5.50981 13.6362 7.44585 15.7558C7.58795 15.9113 7.78892 16 7.99961 16C8.2103 16 8.41127 15.9113 8.55337 15.7558C10.4894 13.6362 11.5897 10.8856 11.6494 8.01558C11.6497 8.00517 11.6497 7.99475 11.6494 7.98434C11.5897 5.1143 10.4894 2.36368 8.55337 0.244141L7.99961 0.749958Z" fill="#2D3748"/>
</svg>
